<svg width="128" height="128" viewBox="0 0 128 128" fill="transparent" stroke="#56dcfc" xmlns="http://www.w3.org/2000/svg">
    <path d="M42.6666 16V37.3333M64 37.3333V16M85.3333 16V37.3333M42.6666 58.6667H85.3333M42.6666 80H64M32 112H96C98.829 112 101.542 110.876 103.542 108.876C105.543 106.875 106.667 104.162 106.667 101.333V37.3333C106.667 34.5044 105.543 31.7912 103.542 29.7909C101.542 27.7905 98.829 26.6667 96 26.6667H32C29.171 26.6667 26.4579 27.7905 24.4575 29.7909C22.4571 31.7912 21.3333 34.5044 21.3333 37.3333V101.333C21.3333 104.162 22.4571 106.875 24.4575 108.876C26.4579 110.876 29.171 112 32 112Z" stroke="#56DCFC" stroke-width="5.75" stroke-linecap="round" stroke-linejoin="round"/>
</svg>