<svg width="150" height="150" viewBox="0 0 150 150" fill="none" xmlns="http://www.w3.org/2000/svg">
    <g clip-path="url(#clip0_166_10829)">
        <path d="M140.908 46.0891C127.54 17.3461 94.431 -3.60359 60.1564 0.502558C55.6486 1.08915 51.2963 1.84334 47.0217 3.18412C41.659 4.8601 37.5398 10.2232 39.4051 15.6702C40.26 18.1003 42.1253 20.3629 44.5346 21.7037C30.1564 28.5752 17.6434 38.631 9.17194 51.4523C-0.46536 66.1171 -2.95241 83.8824 3.88697 99.9718C10.1823 114.72 20.83 126.871 34.8196 135.838C60.1564 152.179 96.1408 155.614 122.643 139.609C130.338 135 137.177 128.882 141.763 121.424C146.892 113.044 148.835 103.575 149.612 94.0221C151.089 77.6813 147.902 61.1729 140.908 46.0891Z" fill="#1519D3"/>
        <path d="M40.9259 97.3575H35.2014L51.7582 52.2666H57.3946L73.9514 97.3575H68.227L54.7526 59.4002H54.4003L40.9259 97.3575ZM43.0395 79.7439H66.1134V84.5877H43.0395V79.7439ZM93.4805 89.4314V60.3689H98.4124V89.4314H93.4805ZM81.4152 77.3661V72.4342H110.478V77.3661H81.4152Z" fill="white"/>
    </g>
    <defs>
        <clipPath id="clip0_166_10829">
            <rect width="150" height="150" fill="white"/>
        </clipPath>
    </defs>
</svg>
