<svg width="50" height="50" viewBox="0 0 50 50" fill="none" xmlns="http://www.w3.org/2000/svg">
<g clip-path="url(#clip0_163_10885)">
<path d="M25.9109 27.3562C26.0047 25.6992 26.8199 24.2363 28.0535 23.2023C29.2621 22.1859 30.8848 21.5645 32.6664 21.5645C34.4387 21.5645 36.0609 22.1855 37.268 23.2023C38.5035 24.2363 39.3137 25.6992 39.4105 27.3562C39.5043 29.0555 38.8156 30.6414 37.6117 31.816C36.3781 33.0074 34.6324 33.7602 32.6664 33.7602C30.6988 33.7602 28.9453 33.0121 27.7195 31.816C26.5109 30.6418 25.8238 29.0645 25.9203 27.3641L25.9109 27.3562Z" fill="#235785"/>
<path d="M15.3301 30.8601C15.341 31.5086 15.5504 32.7703 15.8613 33.7523C16.5183 35.8367 17.6336 37.7652 19.1777 39.4551C20.7644 41.1992 22.7223 42.6016 24.9785 43.5996C27.3508 44.6426 29.9258 45.1766 32.5976 45.1766C35.2695 45.173 37.8445 44.6297 40.2164 43.5742C42.4726 42.5656 44.4312 41.1648 46.0172 39.4113C47.5695 37.7027 48.6812 35.7758 49.334 33.6898C49.6608 32.6537 49.8698 31.5841 49.957 30.5012C50.0383 29.4504 50.0039 28.3898 49.8543 27.3293C49.5618 25.2857 48.8407 23.327 47.7383 21.5816C46.7328 19.9605 45.4273 18.5504 43.875 17.3578L43.8797 17.3562L28.2723 5.43984C28.2582 5.4289 28.2457 5.41796 28.2316 5.40859C27.2086 4.62656 25.4801 4.62968 24.3605 5.41171C23.2223 6.20507 23.091 7.51523 24.1043 8.33984L24.0996 8.34296L30.616 13.6101L10.7766 13.6301H10.75C9.11054 13.6316 7.53163 14.7 7.22264 16.057C6.90233 17.4324 8.01757 18.5805 9.72733 18.5805L9.72421 18.5867L19.7773 18.568L1.78905 32.2359C1.76718 32.2531 1.74218 32.2703 1.7203 32.2875C0.0269414 33.5742 -0.519543 35.7211 0.546863 37.0703C1.63202 38.4461 3.93202 38.4555 5.64335 37.0781L15.4316 29.1055C15.4316 29.1055 15.2879 30.1828 15.3004 30.823L15.3301 30.8601ZM40.5488 34.4613C38.5301 36.5035 35.6988 37.6684 32.6476 37.6684C29.5887 37.673 26.7574 36.5285 24.7383 34.4879C23.7516 33.4883 23.0285 32.35 22.5789 31.132C22.1394 29.9335 21.9698 28.6528 22.0824 27.3812C22.1893 26.1406 22.5593 24.9369 23.1676 23.8504C23.7562 22.7902 24.5699 21.8269 25.566 21.0117C27.532 19.4266 30.0269 18.5586 32.6363 18.5586C35.257 18.5555 37.7523 19.4078 39.7183 20.9945C40.7144 21.8051 41.525 22.7637 42.1168 23.8238C42.7264 24.9103 43.0959 26.1148 43.2004 27.3562C43.3114 28.6273 43.142 29.9072 42.7039 31.1055C42.2558 32.3328 41.5312 33.4711 40.5426 34.4707L40.5488 34.4613Z" fill="#E87500"/>
</g>
<defs>
<clipPath id="clip0_163_10885">
<rect width="50" height="50" fill="white"/>
</clipPath>
</defs>
</svg>
