<svg width="80" height="80" viewBox="0 0 80 80" fill="none" xmlns="http://www.w3.org/2000/svg">
    <path d="M70.6734 34.529C69.2323 33.5344 65.9298 33.1614 63.348 33.6587C63.0481 31.1722 61.6669 28.9968 59.2651 27.0698L57.8843 26.0752L56.9234 27.5049C55.7227 29.3698 55.1223 31.9806 55.3022 34.4671C55.3622 35.3371 55.6625 36.8911 56.5631 38.2587C55.7227 38.756 53.9814 39.3776 51.6998 39.3776H8.28866L8.16867 39.8749C7.7482 42.3612 7.7482 50.1312 12.6718 56.0985C16.3944 60.6361 21.9184 62.9361 29.1836 62.9361C44.9147 62.9361 56.5631 55.4145 62.0272 41.8017C64.1887 41.8639 68.8121 41.8017 71.1538 37.1395C71.2138 37.0152 71.3338 36.7666 71.754 35.8344L71.9943 35.3371L70.6734 34.529ZM42.9933 17H36.3889V23.216H42.9933V17ZM42.9933 24.4592H36.3889V30.6752H42.9933V24.459V24.4592ZM35.1878 24.4592H28.5834V30.6752H35.1878V24.459V24.4592ZM27.3822 24.4592H20.7776V30.6752H27.3822V24.459V24.4592ZM19.5767 31.9184H12.972V38.1344H19.5764V31.9182L19.5767 31.9184ZM27.3822 31.9184H20.7776V38.1344H27.3822V31.9182V31.9184ZM35.1878 31.9184H28.5834V38.1344H35.1878V31.9182V31.9184ZM42.9936 31.9184H36.3887V38.1344H42.9936V31.9182V31.9184ZM50.7991 31.9184H44.1942V38.1344H50.7991V31.9182V31.9184Z" fill="#2396ED"/>
</svg>