<svg width="50" height="50" viewBox="0 0 50 50" fill="none" xmlns="http://www.w3.org/2000/svg">
<g clip-path="url(#clip0_163_10895)">
<path d="M44.1234 0.276566C41.0328 0.276566 38.5238 2.78594 38.5238 5.87657C38.5238 8.96719 41.0332 11.4762 44.1234 11.4762C47.2137 11.4762 49.723 8.97227 49.723 5.87657C49.723 2.78594 47.2137 0.276566 44.1234 0.276566ZM25 5.88203C14.4453 5.88203 5.87656 14.4504 5.87656 25.0051C5.87656 35.5598 14.4449 44.1289 25 44.1289C35.5547 44.1289 44.1234 35.5605 44.1234 25.0055C44.1234 14.4508 35.5547 5.88203 25 5.88203Z" fill="#000080"/>
<path d="M32.9238 11.4812C29.834 11.4812 27.3242 13.9906 27.3242 17.0809C27.3242 20.1711 29.8336 22.6809 32.9238 22.6809C36.0141 22.6809 38.5238 20.1715 38.5238 17.0809C38.5238 13.9902 36.0141 11.4812 32.9238 11.4812ZM12.0207 22.0156V34.5621H19.818V33.1516H13.6211V22.0152L12.0207 22.0156ZM34.5144 25.2852C33.2043 25.2852 32.1215 25.666 31.5191 26.3367C31.107 26.8016 30.9379 27.3195 30.9012 28.2121H32.3484C32.4699 27.1082 33.125 26.6113 34.4668 26.6113C35.7558 26.6113 36.4797 27.0922 36.4797 27.9531V28.3336C36.4797 28.9359 36.1203 29.1949 34.9848 29.332C32.9562 29.591 32.6445 29.6598 32.0949 29.8816C31.0441 30.3094 30.5101 31.1176 30.5101 32.2902C30.5101 33.9281 31.6461 34.9582 33.4687 34.9582C34.6043 34.9582 35.5183 34.5621 36.5324 33.632C36.6328 34.5461 37.082 34.9582 38.0117 34.9582C38.3074 34.9582 38.5293 34.9266 38.9941 34.8051V33.7219C38.8924 33.7482 38.7875 33.7606 38.6824 33.759C38.1808 33.759 37.9058 33.5 37.9058 33.0512V27.7469C37.9058 26.1461 36.7332 25.2852 34.5144 25.2852ZM21.334 25.5445V32.4961C21.334 33.9961 22.4539 34.9578 24.2078 34.9578C25.534 34.9578 26.3738 34.493 27.2191 33.3043V34.5617H28.5082V25.5441H27.0816V30.6574C27.0816 32.5012 26.1148 33.7059 24.6199 33.7059C23.4844 33.7059 22.7605 33.0137 22.7605 31.9309V25.5441L21.334 25.5445ZM36.4797 30.1031V31.7199C36.4797 32.2059 36.3371 32.4965 35.9094 32.8926C35.3226 33.4262 34.6203 33.7012 33.775 33.7012C32.6551 33.7012 32 33.1672 32 32.2535C32 31.3082 32.639 30.8219 34.1711 30.6C35.6871 30.3937 35.9992 30.325 36.4797 30.1031Z" fill="white"/>
<path d="M24.1145 0C23.3871 0.025072 22.6611 0.0818969 21.9387 0.170312L22.0086 0.739844C22.7145 0.653689 23.4237 0.598168 24.1344 0.573438L24.1145 0ZM26.2961 0.0179688L26.2668 0.591406C26.9769 0.62793 27.685 0.695704 28.3891 0.794531L28.4687 0.225781C27.748 0.124926 27.0229 0.0555896 26.2961 0.0179688ZM19.7863 0.529687C19.0743 0.680386 18.3693 0.862596 17.6734 1.07578L17.8414 1.62461C18.5213 1.4164 19.2099 1.23824 19.9055 1.09063L19.7863 0.529687ZM30.6145 0.622266L30.4855 1.18125C31.1786 1.34091 31.8644 1.53054 32.541 1.74961L32.7176 1.20391C32.0253 0.979509 31.3236 0.785444 30.6145 0.622266ZM15.6172 1.80586C14.9427 2.0793 14.2805 2.38206 13.6324 2.71328L13.8934 3.22422C14.5264 2.90032 15.1734 2.60446 15.8324 2.3375L15.6172 1.80586ZM34.7625 1.96602L34.5387 2.49453C35.1934 2.77204 35.8358 3.07779 36.4641 3.41094L36.7328 2.90391C36.09 2.56288 35.4326 2.24969 34.7625 1.96602ZM11.7344 3.79141C11.1177 4.17782 10.5181 4.59097 9.9375 5.02969L10.2836 5.48789C10.851 5.05933 11.4367 4.65557 12.0391 4.27773L11.7344 3.79141ZM8.25547 6.41953C7.71482 6.9068 7.1957 7.41744 6.69961 7.95L7.11953 8.34102C7.60434 7.82099 8.11146 7.32221 8.63945 6.84609L8.25547 6.41953ZM5.28281 9.60898C4.83438 10.1822 4.41119 10.7747 4.01445 11.3848L4.49531 11.6973C4.88309 11.1015 5.2965 10.5228 5.73438 9.96289L5.28281 9.60898ZM2.90547 13.2641C2.5634 13.9066 2.24956 14.5637 1.96484 15.2336L2.49297 15.4578C2.77083 14.8034 3.07738 14.1615 3.41172 13.534L2.90547 13.2641ZM47.2895 13.6441L46.7777 13.9047C47.1003 14.5384 47.3952 15.1857 47.6617 15.8449L48.1937 15.6301C47.9214 14.9554 47.6196 14.2925 47.2895 13.6441ZM1.20117 17.2773C0.976149 17.9696 0.781948 18.6714 0.619141 19.3809L1.17852 19.509C1.33772 18.8161 1.52736 18.1305 1.74688 17.4543L1.20117 17.2773ZM48.9223 17.6871L48.3738 17.8547C48.5814 18.5348 48.7595 19.2236 48.9074 19.9191L49.4687 19.7996C49.3174 19.0877 49.1351 18.3831 48.9223 17.6871ZM0.224219 21.5266C0.123887 22.2473 0.0550712 22.9721 0.0179688 23.6988L0.591016 23.7281C0.627505 23.018 0.694756 22.3098 0.792578 21.6055L0.224219 21.5266ZM49.8289 21.9516L49.2594 22.0215C49.3458 22.7272 49.4016 23.4363 49.4266 24.1469L50 24.1273C49.9747 23.3999 49.9176 22.674 49.8289 21.9516ZM0.573438 25.8613L0 25.8809C0.0249423 26.6082 0.0816369 27.3342 0.169922 28.0566L0.739453 27.9867C0.65344 27.281 0.598049 26.5719 0.573438 25.8613ZM49.4086 26.2797C49.3718 26.9898 49.3043 27.698 49.2063 28.4023L49.7746 28.4816C49.8752 27.7609 49.9443 27.0361 49.9816 26.3094L49.4086 26.2797ZM1.08984 30.0902L0.528516 30.209C0.679203 30.9211 0.861413 31.6263 1.07461 32.3223L1.62344 32.1543C1.41535 31.4743 1.23731 30.7859 1.08984 30.0902ZM48.8195 30.4988C48.6601 31.1917 48.4702 31.8773 48.2504 32.5535L48.7961 32.7309C49.0214 32.0388 49.2158 31.337 49.3789 30.6277L48.8195 30.4988ZM2.33633 34.1637L1.8043 34.3789C2.07726 35.0537 2.38003 35.7161 2.71172 36.3641L3.22227 36.1027C2.89863 35.4697 2.60304 34.8227 2.33633 34.1637ZM47.5031 34.5504C47.225 35.2049 46.9182 35.8468 46.5836 36.4742L47.0898 36.7438C47.4322 36.1015 47.7463 35.4446 48.0312 34.775L47.5031 34.5504ZM4.275 37.957L3.78867 38.2617C4.17508 38.8784 4.58824 39.4779 5.02695 40.0586L5.48477 39.7129C5.05633 39.1454 4.6527 38.5595 4.275 37.957ZM45.4992 38.3102C45.1113 38.9059 44.6978 39.4846 44.2598 40.0445L44.7113 40.3984C45.16 39.8254 45.5835 39.233 45.9805 38.623L45.4992 38.3102ZM6.84297 41.357L6.41641 41.741C6.90354 42.2817 7.41406 42.8008 7.94648 43.2969L8.33789 42.8773C7.81785 42.3924 7.31908 41.8852 6.84297 41.357ZM42.8742 41.6656C42.3891 42.1855 41.8818 42.6842 41.3535 43.1602L41.7375 43.5867C42.2783 43.0997 42.7975 42.5893 43.2938 42.057L42.8742 41.6656ZM9.95898 44.2625L9.60508 44.7145C10.1783 45.163 10.7707 45.5863 11.3809 45.9832L11.6934 45.502C11.0976 45.114 10.5189 44.7005 9.95898 44.2625ZM39.709 44.518C39.1414 44.9463 38.5556 45.3498 37.9531 45.7273L38.2578 46.2137C38.8745 45.8273 39.474 45.4141 40.0547 44.9754L39.709 44.518ZM13.5301 46.5859L13.2602 47.0922C13.9024 47.4344 14.5593 47.7483 15.2289 48.0332L15.4535 47.5051C14.7992 47.2271 14.1574 46.9204 13.5301 46.5859ZM36.0984 46.7797C35.4654 47.1033 34.8184 47.3989 34.1594 47.6656L34.3746 48.1977C35.0494 47.9248 35.7118 47.6222 36.3598 47.2906L36.0984 46.7797ZM17.45 48.2523L17.273 48.7977C17.9653 49.0227 18.6671 49.2169 19.3766 49.3797L19.5051 48.8211C18.8122 48.6618 18.1262 48.472 17.45 48.2523ZM32.15 48.3781C31.4701 48.5861 30.7814 48.764 30.0859 48.9113L30.2047 49.4727C30.9168 49.322 31.622 49.1398 32.318 48.9266L32.15 48.3781ZM21.602 49.207L21.5227 49.7754C22.2434 49.8759 22.9682 49.9448 23.6949 49.982L23.7242 49.409C23.0142 49.3724 22.3061 49.305 21.602 49.207ZM27.9828 49.2613C27.2769 49.3472 26.5677 49.4025 25.857 49.427L25.8766 50.0004C26.6039 49.9756 27.3299 49.919 28.0523 49.8309L27.9828 49.2613Z" fill="#808080"/>
</g>
<defs>
<clipPath id="clip0_163_10895">
<rect width="50" height="50" fill="white"/>
</clipPath>
</defs>
</svg>
