<svg width="50" height="50" viewBox="0 0 50 50" fill="none" xmlns="http://www.w3.org/2000/svg">
<path d="M4.16666 25C4.16666 30.5253 6.36159 35.8244 10.2686 39.7314C12.2032 41.6659 14.4998 43.2005 17.0274 44.2475C19.555 45.2945 22.2641 45.8333 25 45.8333C30.5253 45.8333 35.8244 43.6384 39.7314 39.7314C43.6384 35.8244 45.8333 30.5253 45.8333 25C45.8333 22.2641 45.2945 19.555 44.2475 17.0274C43.2005 14.4998 41.6659 12.2032 39.7314 10.2686C37.7968 8.33405 35.5002 6.79947 32.9726 5.7525C30.4449 4.70553 27.7359 4.16666 25 4.16666C22.2641 4.16666 19.555 4.70553 17.0274 5.7525C14.4998 6.79947 12.2032 8.33405 10.2686 10.2686C6.36159 14.1756 4.16666 19.4746 4.16666 25ZM10.9167 39.0833C9.06167 37.238 7.591 35.0432 6.58973 32.6258C5.58845 30.2084 5.07644 27.6165 5.08332 25C5.08332 19.6875 7.14582 14.6875 10.9167 10.9167C12.762 9.06167 14.9568 7.591 17.3742 6.58973C19.7916 5.58845 22.3835 5.07644 25 5.08332C30.3125 5.08332 35.3125 7.14582 39.0833 10.9167C40.9383 12.762 42.409 14.9568 43.4103 17.3742C44.4115 19.7916 44.9235 22.3835 44.9167 25C44.9167 30.3125 42.8542 35.3125 39.0833 39.0833C37.238 40.9383 35.0432 42.409 32.6258 43.4103C30.2084 44.4115 27.6165 44.9235 25 44.9167C19.6875 44.9167 14.6875 42.8542 10.9167 39.0833ZM13.2292 19.7917C9.04166 24.5625 9.85416 28.5 9.85416 28.5C9.85416 28.5 11 25.7917 13.7708 22.9167C15.1042 21.6042 16.0833 21.1458 16.75 21.1458C17.5 21.1458 17.8542 21.6875 17.8542 22.1875V31.8542C17.8542 32.8125 17.2292 33.0208 16.6667 33C16.3475 32.9927 16.0313 32.9364 15.7292 32.8333C18.5833 36.9375 25.3958 37.5 25.3958 37.5L28.3958 34.375H28.4792L31.25 36.7292C36.2292 33.7708 38.6458 28.2917 38.6458 28.2917C36.4583 30.625 34.9792 31.1875 34.1458 31.1667C33.3958 31.1667 33.0833 30.7292 33.0833 30.7292C33.0625 30.5208 32.9583 18.5417 33.1042 18.5417C33.9792 16.9375 36.7292 13.6667 36.7292 13.6667C31.5833 14.6875 28.7708 18.0417 28.7708 18.0417C27.9375 17.3958 26.2292 17.5 26.2292 17.5C27.0208 17.9375 27.8125 19.1875 27.8125 20.25V30.5208C27.8125 30.5208 26.0417 32.0417 24.75 32.0417C23.9583 32.0417 23.4792 31.6042 23.2083 31.25C23.0208 31 22.9167 30.8125 22.9167 30.8125V18.1042C22.7708 18.2292 22.5417 18.3333 22.3125 18.3333C22.0208 18.3125 21.7292 18.1875 21.5417 17.7708C21.375 17.4583 21.2917 16.9792 21.2917 16.3125C21.2917 13.9583 23.9583 12.4167 23.9583 12.4167C20.5625 13.3125 17.4167 15.0417 13.2292 19.7917Z" fill="black"/>
</svg>
